<svg version="1.0" xmlns="http://www.w3.org/2000/svg" viewBox="0 0 1153.000000 314.000000" preserveAspectRatio="xMidYMid meet">
    <g transform="translate(0.000000,314.000000) scale(0.100000,-0.100000)" stroke="none">
        <path fill="#6f8a67" d="M1164 3122 c-23 -9 -48 -23 -57 -30 -17 -15 -57 -86 -57 -103 0 -5
        -8 -29 -19 -52 -10 -23 -29 -69 -42 -102 -13 -33 -28 -63 -32 -66 -5 -3 -9
        -10 -9 -15 -1 -31 -113 -251 -213 -419 -13 -22 -31 -56 -41 -75 -10 -19 -22
        -39 -27 -45 -4 -5 -30 -44 -57 -85 -28 -41 -54 -80 -58 -86 -5 -5 -22 -30 -38
        -55 -35 -53 -21 -34 -152 -210 -109 -147 -123 -165 -153 -198 -8 -10 -19 -24
        -22 -32 -4 -8 -29 -45 -57 -84 -83 -115 -123 -208 -128 -292 -6 -120 25 -177
        118 -218 38 -17 67 -20 203 -20 100 0 160 4 165 11 4 5 54 18 112 28 58 10
        110 22 115 26 6 4 40 13 78 20 37 7 70 16 73 21 3 5 13 9 22 9 14 0 162 42
        202 57 30 12 147 45 235 66 50 12 95 25 101 29 5 4 34 10 62 14 29 4 55 10 57
        14 3 5 14 6 25 3 11 -3 26 -1 33 5 6 5 39 13 72 17 33 4 65 11 70 15 6 5 78
        14 160 20 157 13 377 2 399 -20 5 -5 19 -10 31 -10 11 0 33 -7 49 -15 36 -19
        66 -19 66 -1 0 8 5 16 10 18 6 2 13 28 16 58 6 60 -15 114 -52 134 -10 6 -21
        14 -24 18 -19 25 -326 39 -493 22 l-62 -6 3 103 c2 57 8 109 13 115 11 13 25
        430 16 466 -10 38 -57 58 -139 58 -37 0 -76 -4 -86 -9 -9 -5 -29 -14 -44 -21
        -53 -25 -66 -75 -79 -305 -6 -115 -15 -214 -19 -220 -4 -5 -11 -60 -15 -120
        -8 -128 -5 -124 -125 -145 -36 -7 -69 -15 -75 -20 -5 -4 -41 -13 -80 -19 -38
        -7 -74 -16 -80 -21 -5 -4 -37 -13 -70 -20 -33 -7 -65 -16 -70 -20 -6 -5 -41
        -14 -78 -21 -37 -7 -67 -16 -67 -20 0 -4 -19 -10 -42 -14 -24 -4 -47 -11 -53
        -15 -5 -5 -12 -8 -15 -8 -16 1 -168 -35 -184 -44 -31 -17 -178 -23 -205 -8
        -50 26 -7 157 96 296 13 17 23 33 23 37 0 3 9 16 20 29 11 12 46 59 79 103 33
        44 73 95 90 114 17 19 33 43 37 53 3 10 9 18 14 18 5 0 11 8 14 18 3 9 18 31
        33 47 31 34 93 122 93 132 0 3 15 24 33 47 18 23 46 64 61 91 16 28 43 73 61
        100 18 28 55 93 81 145 27 52 52 97 55 100 3 3 12 22 20 43 7 20 16 37 19 37
        4 0 12 19 19 43 7 23 18 51 25 62 7 11 19 38 26 60 7 22 24 57 37 77 12 21 23
        44 23 52 0 8 11 36 25 62 14 26 32 72 39 102 14 50 13 55 -5 73 -25 25 -145
        26 -205 1z"/>
        <path fill="#4e4450" d="M5613 1879 c-49 -14 -83 -62 -83 -116 0 -38 5 -50 34 -79 30 -30 40
        -34 88 -34 60 0 90 16 113 60 20 39 19 79 -5 117 -30 49 -87 70 -147 52z"/>
        <path fill="#4e4450" d="M3099 1552 c-185 -50 -299 -203 -299 -402 1 -217 132 -376 338 -412
        189 -32 368 55 449 219 33 67 38 85 41 169 7 156 -45 276 -155 360 -95 73
        -250 100 -374 66z m176 -173 c52 -15 119 -82 134 -134 14 -53 14 -138 -1 -188
        -17 -58 -82 -122 -138 -137 -144 -39 -260 59 -260 220 0 86 14 133 53 177 56
        64 128 85 212 62z"/>
        <path fill="#4e4450" d="M6279 1552 c-185 -50 -299 -203 -299 -402 1 -217 132 -376 338 -412
        189 -32 368 55 449 219 33 67 38 85 41 169 7 156 -45 276 -155 360 -95 73
        -250 100 -374 66z m176 -173 c52 -15 119 -82 134 -134 14 -53 14 -138 -1 -188
        -17 -58 -82 -122 -138 -137 -144 -39 -260 59 -260 220 0 86 14 133 53 177 56
        64 128 85 212 62z"/>
        <path fill="#4e4450" d="M10042 1559 c-194 -38 -312 -193 -312 -410 0 -187 90 -327 250 -391
        79 -31 231 -31 312 1 91 35 188 135 213 219 6 22 6 22 -101 22 l-107 0 -33
        -39 c-97 -113 -297 -55 -321 93 l-6 36 298 0 297 0 -4 98 c-3 83 -8 107 -34
        162 -79 165 -257 248 -452 209z m150 -169 c48 -14 97 -55 114 -97 28 -65 34
        -63 -176 -63 -140 0 -190 3 -190 12 0 6 9 31 21 55 41 84 131 120 231 93z"/>
        <path fill="#4e4450" d="M5260 1551 c-46 -14 -89 -41 -125 -78 l-35 -36 0 56 0 57 -105 0
        -105 0 0 -405 0 -405 105 0 105 0 0 243 c0 211 2 246 18 276 26 52 60 72 146
        84 l76 11 0 103 0 103 -27 -1 c-16 0 -39 -4 -53 -8z"/>
        <path fill="#4e4450" d="M8450 1551 c-46 -14 -89 -41 -125 -78 l-35 -36 0 56 0 57 -105 0
        -105 0 0 -405 0 -405 105 0 105 0 0 243 c0 211 2 246 18 276 26 52 60 72 146
        84 l76 11 0 103 0 103 -27 -1 c-16 0 -39 -4 -53 -8z"/>
        <path fill="#4e4450" d="M9100 1551 c-44 -14 -94 -43 -122 -69 l-28 -26 0 47 0 47 -105 0
        -105 0 0 -405 0 -405 105 0 105 0 0 255 c0 196 3 263 14 289 46 110 209 139
        292 51 47 -50 54 -96 54 -359 l0 -236 100 0 100 0 0 274 c0 245 -2 281 -20
        338 -40 129 -138 199 -284 205 -45 1 -92 -1 -106 -6z"/>
        <path fill="#4e4450" d="M3840 1302 c0 -137 5 -275 11 -307 21 -114 79 -193 174 -237 40 -18
        67 -23 140 -23 99 0 156 20 215 75 l30 28 0 -49 0 -49 105 0 105 0 -2 403 -3
        402 -102 3 -102 3 -3 -263 c-3 -242 -5 -266 -23 -297 -26 -44 -62 -70 -111
        -81 -86 -20 -164 15 -201 90 -22 42 -23 55 -23 297 l0 253 -105 0 -105 0 0
        -248z"/>
        <path fill="#4e4450" d="M5550 1060 c0 -477 -1 -491 -20 -510 -15 -15 -33 -20 -70 -20 l-50 0
        0 -90 0 -90 53 0 c139 1 232 45 271 129 20 45 21 60 24 559 l3 512 -105 0
        -106 0 0 -490z"/>
        <path fill="#4e4450" d="M7030 1302 c0 -137 5 -275 11 -307 21 -114 79 -193 174 -237 40 -18
        67 -23 140 -23 99 0 156 20 215 75 l30 28 0 -49 0 -49 105 0 105 0 -2 403 -3
        402 -102 3 -102 3 -3 -263 c-3 -242 -5 -266 -23 -297 -26 -44 -62 -70 -111
        -81 -86 -20 -164 15 -201 90 -22 42 -23 55 -23 297 l0 253 -105 0 -105 0 0
        -248z"/>
        <path fill="#4e4450" d="M10664 1533 c4 -10 77 -188 162 -395 l155 -377 -82 -188 c-44 -103
        -83 -194 -86 -200 -4 -10 21 -13 104 -13 l109 0 247 588 c136 323 247 591 247
        595 0 4 -48 6 -107 5 l-107 -3 -98 -260 c-53 -143 -101 -268 -106 -278 -6 -14
        -35 54 -111 262 l-104 281 -115 0 c-105 0 -114 -1 -108 -17z"/>
        <path fill="#6f8a67" d="M1705 1192 c-6 -5 -48 -14 -94 -21 -46 -7 -90 -18 -97 -26 -8 -7 -19
        -15 -26 -17 -33 -11 -51 -748 -22 -939 19 -132 28 -149 84 -171 83 -32 176
        -17 214 35 20 27 21 41 21 235 0 114 6 359 14 544 12 274 12 340 1 353 -13 16
        -79 21 -95 7z"/>
    </g>
</svg>